<mxfile host="65bd71144e">
    <diagram name="Trang-1" id="J9FtOq5tRURp-biuBff0">
        <mxGraphModel dx="1020" dy="834" grid="1" gridSize="10" guides="1" tooltips="1" connect="1" arrows="1" fold="1" page="1" pageScale="1" pageWidth="827" pageHeight="1169" math="0" shadow="0">
            <root>
                <mxCell id="0"/>
                <mxCell id="1" parent="0"/>
                <mxCell id="53XIudgs1vDIVnULoqUu-1" value="" style="shape=umlActor;verticalLabelPosition=bottom;verticalAlign=top;html=1;outlineConnect=0;" parent="1" vertex="1">
                    <mxGeometry x="120" y="290" width="30" height="60" as="geometry"/>
                </mxCell>
                <mxCell id="53XIudgs1vDIVnULoqUu-4" value="" style="rounded=0;whiteSpace=wrap;html=1;" parent="1" vertex="1">
                    <mxGeometry x="350" y="310" width="120" height="60" as="geometry"/>
                </mxCell>
                <mxCell id="53XIudgs1vDIVnULoqUu-5" value="" style="rounded=0;whiteSpace=wrap;html=1;" parent="1" vertex="1">
                    <mxGeometry x="240" y="160" width="400" height="280" as="geometry"/>
                </mxCell>
                <mxCell id="53XIudgs1vDIVnULoqUu-6" value="Xem phim" style="ellipse;whiteSpace=wrap;html=1;" parent="1" vertex="1">
                    <mxGeometry x="280" y="280" width="120" height="80" as="geometry"/>
                </mxCell>
                <mxCell id="53XIudgs1vDIVnULoqUu-13" value="" style="endArrow=none;html=1;rounded=0;" parent="1" target="53XIudgs1vDIVnULoqUu-6" edge="1">
                    <mxGeometry width="50" height="50" relative="1" as="geometry">
                        <mxPoint x="150" y="320" as="sourcePoint"/>
                        <mxPoint x="200" y="270" as="targetPoint"/>
                    </mxGeometry>
                </mxCell>
                <mxCell id="53XIudgs1vDIVnULoqUu-17" value="Xem trailer" style="ellipse;whiteSpace=wrap;html=1;" parent="1" vertex="1">
                    <mxGeometry x="510" y="200" width="100" height="70" as="geometry"/>
                </mxCell>
                <mxCell id="53XIudgs1vDIVnULoqUu-18" value="Xem bình luận" style="ellipse;whiteSpace=wrap;html=1;" parent="1" vertex="1">
                    <mxGeometry x="510" y="340" width="120" height="70" as="geometry"/>
                </mxCell>
                <mxCell id="53XIudgs1vDIVnULoqUu-20" value="" style="endArrow=classic;html=1;rounded=0;exitX=0.012;exitY=0.728;exitDx=0;exitDy=0;exitPerimeter=0;" parent="1" source="53XIudgs1vDIVnULoqUu-17" target="53XIudgs1vDIVnULoqUu-6" edge="1">
                    <mxGeometry width="50" height="50" relative="1" as="geometry">
                        <mxPoint x="390" y="370" as="sourcePoint"/>
                        <mxPoint x="440" y="320" as="targetPoint"/>
                    </mxGeometry>
                </mxCell>
                <mxCell id="53XIudgs1vDIVnULoqUu-25" value="&amp;lt;&amp;lt;extend&amp;gt;&amp;gt;" style="edgeLabel;html=1;align=center;verticalAlign=middle;resizable=0;points=[];" parent="53XIudgs1vDIVnULoqUu-20" vertex="1" connectable="0">
                    <mxGeometry x="0.2064" y="2" relative="1" as="geometry">
                        <mxPoint x="10" y="-12" as="offset"/>
                    </mxGeometry>
                </mxCell>
                <mxCell id="53XIudgs1vDIVnULoqUu-23" value="" style="endArrow=classic;html=1;rounded=0;exitX=0;exitY=0.5;exitDx=0;exitDy=0;entryX=0.97;entryY=0.633;entryDx=0;entryDy=0;entryPerimeter=0;" parent="1" source="53XIudgs1vDIVnULoqUu-18" target="53XIudgs1vDIVnULoqUu-6" edge="1">
                    <mxGeometry width="50" height="50" relative="1" as="geometry">
                        <mxPoint x="390" y="370" as="sourcePoint"/>
                        <mxPoint x="440" y="320" as="targetPoint"/>
                    </mxGeometry>
                </mxCell>
                <mxCell id="53XIudgs1vDIVnULoqUu-26" value="&amp;lt;&amp;lt;extend&amp;gt;&amp;gt;" style="edgeLabel;html=1;align=center;verticalAlign=middle;resizable=0;points=[];" parent="53XIudgs1vDIVnULoqUu-23" vertex="1" connectable="0">
                    <mxGeometry x="-0.0802" relative="1" as="geometry">
                        <mxPoint x="-9" y="-8" as="offset"/>
                    </mxGeometry>
                </mxCell>
                <mxCell id="2" value="User" style="text;html=1;align=center;verticalAlign=middle;resizable=0;points=[];autosize=1;strokeColor=none;fillColor=none;" vertex="1" parent="1">
                    <mxGeometry x="110" y="360" width="50" height="30" as="geometry"/>
                </mxCell>
                <mxCell id="3" value="Text" style="text;html=1;align=center;verticalAlign=middle;whiteSpace=wrap;rounded=0;" vertex="1" parent="1">
                    <mxGeometry x="490" y="290" width="60" height="30" as="geometry"/>
                </mxCell>
                <mxCell id="4" value="Mini system" style="text;html=1;align=center;verticalAlign=middle;whiteSpace=wrap;rounded=0;" vertex="1" parent="1">
                    <mxGeometry x="390" y="160" width="90" height="30" as="geometry"/>
                </mxCell>
            </root>
        </mxGraphModel>
    </diagram>
</mxfile>